Coordinates
version=1
nRows=15
nColumns=38
inDegrees=yes

Units are S.I. units (second, meters, Newtons, ...)
Angles are in degrees.

endheader
time	pelvis_tilt	pelvis_list	pelvis_rotation	pelvis_tx	pelvis_ty	pelvis_tz	hip_flexion_r	hip_adduction_r	hip_rotation_r	knee_angle_r	ankle_angle_r	subtalar_angle_r	mtp_angle_r	hip_flexion_l	hip_adduction_l	hip_rotation_l	knee_angle_l	ankle_angle_l	subtalar_angle_l	mtp_angle_l	lumbar_extension	lumbar_bending	lumbar_rotation	arm_flex_r	arm_add_r	arm_rot_r	elbow_flex_r	pro_sup_r	wrist_flex_r	wrist_dev_r	arm_flex_l	arm_add_l	arm_rot_l	elbow_flex_l	pro_sup_l	wrist_flex_l	wrist_dev_l
      2.08000000	      0.11305017	      3.38091721	     -1.72570906	      1.01007377	      0.97406075	     -0.28846021	     20.52690153	    -11.52980146	    -12.46005164	    -61.15927561	      4.06963402	    -17.33864752	      0.00000000	      7.92319893	      7.33387243	     -6.95405423	    -17.78230254	     10.42857052	    -12.56577967	      0.00000000	     -2.13012206	     -3.26249974	     -5.85238640	      3.52080986	     -3.97454925	     48.41721286	     20.52165394	     44.10282170	      0.00000000	      0.00000000	      5.61084263	    -10.11414399	     46.84618120	     26.12915244	     44.10282170	      0.00000000	      0.00000000
      2.09000000	      0.12974526	      3.32619572	     -1.41158925	      1.02045971	      0.97482839	     -0.28950196	     21.31758551	    -11.68207811	    -13.25236299	    -59.67125670	      4.45317661	    -16.81851210	      0.00000000	      7.06681186	      7.29374323	     -7.27709608	    -17.49024335	     10.97350113	    -11.65652984	      0.00000000	     -2.18175020	     -3.12122498	     -6.23347016	      3.05160324	     -3.97376810	     48.38077276	     20.26992552	     44.14623403	      0.00000000	      0.00000000	      6.08704197	    -11.04969869	     48.30686381	     28.58690378	     44.14623403	      0.00000000	      0.00000000
      2.10000000	     -0.03917148	      3.25828025	     -1.06134470	      1.03030845	      0.97509621	     -0.29037877	     22.17219167	    -11.48834243	    -13.58958146	    -57.82383804	      4.83342742	    -16.79769839	      0.00000000	      6.40987954	      7.29058782	     -7.11400414	    -17.14121830	     11.23032963	    -11.43994818	      0.00000000	     -2.07511113	     -2.98181973	     -6.58086287	      2.54754705	     -3.97199169	     48.40471031	     20.17784868	     44.14985926	      0.00000000	      0.00000000	      6.89220839	    -11.25939868	     48.26067533	     28.75972535	     44.14985926	      0.00000000	      0.00000000
      2.11000000	     -0.10521435	      3.19206316	     -0.71996639	      1.04014759	      0.97535611	     -0.29113752	     22.93374693	    -11.42757524	    -14.19645989	    -55.84188003	      5.03675007	    -16.72117208	      0.00000000	      5.68858339	      7.28195991	     -7.09536042	    -16.92014078	     11.53004530	    -11.26797146	      0.00000000	     -2.08924395	     -2.85977078	     -6.87109731	      2.00965449	     -3.97883725	     48.42144286	     20.06611537	     44.15386101	      0.00000000	      0.00000000	      7.68856006	    -11.41257285	     48.27471351	     29.08186069	     44.15386101	      0.00000000	      0.00000000
      2.12000000	     -0.15547806	      3.16909095	     -0.39917375	      1.04991298	      0.97545379	     -0.29166619	     23.46939810	    -11.16864739	    -14.32476751	    -53.54537879	      5.64693738	    -16.37107539	      0.00000000	      4.96509526	      7.28406458	     -6.93072201	    -16.70331421	     11.88718619	    -10.95722467	      0.00000000	     -2.12276308	     -2.79350306	     -7.15458794	      1.51063837	     -3.94646610	     48.42945571	     19.95817816	     44.15827556	      0.00000000	      0.00000000	      8.46370448	    -11.66035415	     48.32535907	     29.50624523	     44.15827556	      0.00000000	      0.00000000
      2.13000000	     -0.12876120	      3.11684141	     -0.04783190	      1.05956092	      0.97540874	     -0.29207182	     23.88962963	    -11.02234554	    -14.77953019	    -51.18084276	      6.18901843	    -15.54119836	      0.00000000	      4.34466411	      7.12761064	     -7.71388645	    -16.80353519	     12.65819511	     -9.78547455	      0.00000000	     -2.29649215	     -2.72303641	     -7.43661428	      1.07860021	     -3.83840838	     48.16408633	     19.55745701	     44.19888140	      0.00000000	      0.00000000	      8.97806930	    -12.77818606	     49.37357610	     32.40518314	     44.19888140	      0.00000000	      0.00000000
      2.14000000	     -0.27972390	      3.22568132	      0.28174356	      1.06903296	      0.97500822	     -0.29244403	     24.44848318	    -10.82705257	    -14.79367585	    -48.57256745	      6.51648123	    -15.27467662	      0.00000000	      3.82960071	      7.24948910	     -7.67463408	    -16.71120605	     12.87804548	     -9.67983266	      0.00000000	     -2.24985189	     -2.84610358	     -7.73709416	      0.67501147	     -3.76725830	     48.17669532	     19.50077833	     44.20177252	      0.00000000	      0.00000000	      9.70471763	    -12.99833041	     49.27022989	     32.58779474	     44.20177252	      0.00000000	      0.00000000
      2.15000000	     -0.22722223	      3.19897381	      0.58773342	      1.07854839	      0.97470456	     -0.29270208	     24.68622939	    -10.62107344	    -15.22246365	    -45.84515114	      6.88434069	    -14.44372591	      0.00000000	      3.10302697	      7.17860852	     -7.95010246	    -16.60771569	     13.40899272	     -9.14910754	      0.00000000	     -2.46782949	     -2.79919637	     -7.91466676	      0.26706748	     -3.64599568	     47.88981397	     19.22541568	     44.24285858	      0.00000000	      0.00000000	     10.28228972	    -13.72613801	     49.32967975	     34.68845159	     44.24285858	      0.00000000	      0.00000000
      2.16000000	     -0.37413180	      3.31752140	      0.90225569	      1.08787106	      0.97400884	     -0.29296541	     25.06623788	    -10.37838840	    -15.17724073	    -42.90845649	      7.10297076	    -13.96465209	      0.00000000	      2.53399113	      7.31956653	     -7.90255648	    -16.40182993	     13.68096420	     -9.07631923	      0.00000000	     -2.45169245	     -2.93081701	     -8.18840473	     -0.10328589	     -3.56983831	     47.88967264	     19.16647541	     44.24599034	      0.00000000	      0.00000000	     11.01649206	    -13.96916219	     49.17104790	     34.88595394	     44.24599034	      0.00000000	      0.00000000
      2.17000000	     -0.26906014	      3.27724623	      1.19709479	      1.09736791	      0.97348318	     -0.29312402	     25.09063693	    -10.12069893	    -15.77440571	    -39.85300346	      7.07899362	    -13.22203622	      0.00000000	      1.70404231	      7.24736649	     -7.70118229	    -16.22655046	     14.22851362	     -8.76207293	      0.00000000	     -2.74982470	     -2.87117085	     -8.39323640	     -0.41364049	     -3.28272653	     47.13788549	     18.59679820	     44.30262027	      0.00000000	      0.00000000	     11.30695670	    -14.77313293	     48.38073006	     37.71015277	     44.30262027	      0.00000000	      0.00000000
      2.18000000	     -0.29298447	      3.30310140	      1.49413048	      1.10679795	      0.97259608	     -0.29324225	     25.18504575	     -9.79426048	    -16.00372101	    -36.66933039	      7.02080723	    -12.57056122	      0.00000000	      1.09091759	      7.26411770	     -7.56389130	    -16.22112110	     14.67892917	     -8.71507705	      0.00000000	     -2.88302747	     -2.89373653	     -8.61648727	     -0.73149284	     -3.23633121	     47.10130802	     18.55596412	     44.30812481	      0.00000000	      0.00000000	     11.98311111	    -14.94405718	     48.10891566	     37.99039059	     44.30812481	      0.00000000	      0.00000000
      2.19000000	     -0.25476111	      3.23650478	      1.82301120	      1.11621270	      0.97166722	     -0.29333966	     25.14247574	     -9.42719060	    -16.52044825	    -33.46324237	      6.88614367	    -11.68581122	      0.00000000	      0.44353824	      7.15569830	     -7.37418448	    -16.29786633	     15.27693581	     -8.55494176	      0.00000000	     -3.11570022	     -2.80212279	     -8.85773344	     -0.97378296	     -3.20038799	     46.97593359	     18.43674509	     44.31675832	      0.00000000	      0.00000000	     12.58924503	    -15.14943163	     47.80631541	     38.65518856	     44.31675832	      0.00000000	      0.00000000
      2.20000000	     -0.25694932	      3.14012612	      2.29306437	      1.12534917	      0.97037875	     -0.29337565	     25.12524745	     -9.00706723	    -16.95716927	    -30.28524973	      6.89676299	    -10.84860586	      0.00000000	     -0.04064691	      6.97819492	     -7.15541212	    -16.60649051	     15.95551935	     -8.37706418	      0.00000000	     -3.34131468	     -2.70581288	     -9.22382168	     -1.20968121	     -3.09611371	     46.84740415	     18.29925061	     44.32356752	      0.00000000	      0.00000000	     13.15822801	    -15.47832059	     47.52665899	     39.40440570	     44.32356752	      0.00000000	      0.00000000
      2.21000000	     -0.22440398	      3.06059507	      2.63205254	      1.13496904	      0.96896616	     -0.29328219	     25.06952585	     -8.65415616	    -17.68905214	    -27.22187498	      7.03151110	     -9.25242090	      0.00000000	     -0.61173522	      6.77797641	     -7.11067381	    -16.87775242	     16.77311111	     -7.79503985	      0.00000000	     -3.57014293	     -2.60379461	     -9.51709733	     -1.33475353	     -3.02380273	     46.52700565	     18.01695868	     44.33666524	      0.00000000	      0.00000000	     13.46080310	    -15.90700668	     47.06156558	     40.94161727	     44.33666524	      0.00000000	      0.00000000
      2.22000000	     -0.40656433	      3.29690720	      2.86634172	      1.14458909	      0.96696358	     -0.29322087	     25.47030292	     -8.49786069	    -17.91698286	    -24.55137777	      7.09154071	     -8.59663253	      0.00000000	     -1.03584370	      7.00171976	     -6.98611799	    -17.02668115	     17.33847401	     -7.74721398	      0.00000000	     -3.49629358	     -2.86449199	     -9.73411257	     -1.53165493	     -2.97258177	     46.49007071	     17.95578329	     44.33842787	      0.00000000	      0.00000000	     13.93029139	    -16.10478328	     46.89049581	     41.20676878	     44.33842787	      0.00000000	      0.00000000
